# xmcd
#
# Track frame offsets: 
#        182
#        13862
#        26080
#        47797
#        69245
#        82652
#        99007
#        115685
#        132307
#        144137
#
# Disc length: 2156 seconds
#
# Revision: 4
# Processed by: cddbd v1.5.2PL0 Copyright (c) Steve Scherf et al.
# Submitted via: ExactAudioCopy v1.0b1
#
DISCID=70086a0a
DTITLE=Allen Toussaint - Southern Nights
DYEAR=1975
DGENRE=Soul
TTITLE0=Last Train
TTITLE1=Worldwide
TTITLE2=Back In Baby's Arms
TTITLE3=Country John
TTITLE4=Basic Lady
TTITLE5=Southern Nights
TTITLE6=You Will Not Lose
TTITLE7=What Do You Want The Girl To Do
TTITLE8=When The Party's Over
TTITLE9=Cruel Way To Go Down
EXTD=
EXTT0=
EXTT1=
EXTT2=
EXTT3=
EXTT4=
EXTT5=
EXTT6=
EXTT7=
EXTT8=
EXTT9=
PLAYORDER=
